<mxfile host="app.diagrams.net" modified="2020-09-01T05:52:09.478Z" agent="5.0 (Windows NT 10.0; Win64; x64) AppleWebKit/537.36 (KHTML, like Gecko) Chrome/84.0.4147.135 Safari/537.36" etag="LIji4ogn2kpamLQOzRug" version="13.6.5" type="github">
  <diagram id="6a731a19-8d31-9384-78a2-239565b7b9f0" name="Page-1">
    <mxGraphModel dx="1422" dy="762" grid="1" gridSize="10" guides="1" tooltips="1" connect="1" arrows="1" fold="1" page="1" pageScale="1" pageWidth="1169" pageHeight="827" background="#ffffff" math="0" shadow="0">
      <root>
        <mxCell id="0" />
        <mxCell id="1" parent="0" />
        <mxCell id="fs0dfM01-aWYpjKkijkv-1802" value="" style="edgeStyle=none;rounded=0;orthogonalLoop=1;jettySize=auto;html=1;fontSize=14;fontColor=#FFFFFF;" parent="1" source="fs0dfM01-aWYpjKkijkv-1781" target="fs0dfM01-aWYpjKkijkv-1801" edge="1">
          <mxGeometry relative="1" as="geometry" />
        </mxCell>
        <mxCell id="fs0dfM01-aWYpjKkijkv-1804" value="" style="edgeStyle=none;rounded=0;orthogonalLoop=1;jettySize=auto;html=1;fontSize=14;fontColor=#FFFFFF;" parent="1" source="fs0dfM01-aWYpjKkijkv-1781" target="fs0dfM01-aWYpjKkijkv-1803" edge="1">
          <mxGeometry relative="1" as="geometry" />
        </mxCell>
        <mxCell id="fs0dfM01-aWYpjKkijkv-1781" value="商城" style="rounded=1;whiteSpace=wrap;html=1;strokeColor=none;strokeWidth=3;perimeterSpacing=2;fontSize=14;fontColor=#FFFFFF;fillColor=#007FFF;" parent="1" vertex="1">
          <mxGeometry x="1010" y="890" width="120" height="60" as="geometry" />
        </mxCell>
        <mxCell id="fs0dfM01-aWYpjKkijkv-1841" value="" style="edgeStyle=none;rounded=0;orthogonalLoop=1;jettySize=auto;html=1;fontSize=14;fontColor=#FFFFFF;" parent="1" source="fs0dfM01-aWYpjKkijkv-1801" target="fs0dfM01-aWYpjKkijkv-1840" edge="1">
          <mxGeometry relative="1" as="geometry" />
        </mxCell>
        <mxCell id="fs0dfM01-aWYpjKkijkv-1845" value="" style="edgeStyle=none;rounded=0;orthogonalLoop=1;jettySize=auto;html=1;fontSize=14;fontColor=#FFFFFF;" parent="1" source="fs0dfM01-aWYpjKkijkv-1801" target="fs0dfM01-aWYpjKkijkv-1844" edge="1">
          <mxGeometry relative="1" as="geometry" />
        </mxCell>
        <mxCell id="fs0dfM01-aWYpjKkijkv-1851" value="" style="edgeStyle=none;rounded=0;orthogonalLoop=1;jettySize=auto;html=1;fontSize=14;fontColor=#FFFFFF;" parent="1" source="fs0dfM01-aWYpjKkijkv-1801" target="fs0dfM01-aWYpjKkijkv-1850" edge="1">
          <mxGeometry relative="1" as="geometry" />
        </mxCell>
        <mxCell id="fs0dfM01-aWYpjKkijkv-1801" value="C端" style="whiteSpace=wrap;html=1;rounded=1;fontSize=14;fontColor=#FFFFFF;strokeColor=none;strokeWidth=3;fillColor=#CC0000;" parent="1" vertex="1">
          <mxGeometry x="1250" y="680" width="120" height="60" as="geometry" />
        </mxCell>
        <mxCell id="fs0dfM01-aWYpjKkijkv-1864" value="" style="edgeStyle=none;rounded=0;orthogonalLoop=1;jettySize=auto;html=1;fontSize=14;fontColor=#FFFFFF;" parent="1" source="fs0dfM01-aWYpjKkijkv-1803" target="fs0dfM01-aWYpjKkijkv-1863" edge="1">
          <mxGeometry relative="1" as="geometry" />
        </mxCell>
        <mxCell id="fs0dfM01-aWYpjKkijkv-1866" value="" style="edgeStyle=none;rounded=0;orthogonalLoop=1;jettySize=auto;html=1;fontSize=14;fontColor=#FFFFFF;" parent="1" source="fs0dfM01-aWYpjKkijkv-1803" target="fs0dfM01-aWYpjKkijkv-1865" edge="1">
          <mxGeometry relative="1" as="geometry" />
        </mxCell>
        <mxCell id="fs0dfM01-aWYpjKkijkv-1868" value="" style="edgeStyle=none;rounded=0;orthogonalLoop=1;jettySize=auto;html=1;fontSize=14;fontColor=#FFFFFF;" parent="1" source="fs0dfM01-aWYpjKkijkv-1803" target="fs0dfM01-aWYpjKkijkv-1867" edge="1">
          <mxGeometry relative="1" as="geometry" />
        </mxCell>
        <mxCell id="fs0dfM01-aWYpjKkijkv-1871" value="" style="edgeStyle=none;rounded=0;orthogonalLoop=1;jettySize=auto;html=1;fontSize=14;fontColor=#FFFFFF;" parent="1" source="fs0dfM01-aWYpjKkijkv-1803" target="fs0dfM01-aWYpjKkijkv-1870" edge="1">
          <mxGeometry relative="1" as="geometry" />
        </mxCell>
        <mxCell id="hfIR77nUvffGfV-e1Rjv-10" value="" style="edgeStyle=none;rounded=0;orthogonalLoop=1;jettySize=auto;html=1;" edge="1" parent="1" source="fs0dfM01-aWYpjKkijkv-1803" target="hfIR77nUvffGfV-e1Rjv-9">
          <mxGeometry relative="1" as="geometry" />
        </mxCell>
        <mxCell id="hfIR77nUvffGfV-e1Rjv-34" value="" style="edgeStyle=none;rounded=0;orthogonalLoop=1;jettySize=auto;html=1;" edge="1" parent="1" source="fs0dfM01-aWYpjKkijkv-1803" target="hfIR77nUvffGfV-e1Rjv-33">
          <mxGeometry relative="1" as="geometry" />
        </mxCell>
        <mxCell id="fs0dfM01-aWYpjKkijkv-1803" value="管理端" style="whiteSpace=wrap;html=1;rounded=1;fontSize=14;fontColor=#FFFFFF;strokeColor=none;strokeWidth=3;fillColor=#CC0000;" parent="1" vertex="1">
          <mxGeometry x="1010" y="1210" width="120" height="60" as="geometry" />
        </mxCell>
        <mxCell id="fs0dfM01-aWYpjKkijkv-1813" value="广告Banner" style="ellipse;whiteSpace=wrap;html=1;rounded=1;fontSize=14;fontColor=#FFFFFF;strokeColor=none;strokeWidth=3;fillColor=#FF9933;" parent="1" vertex="1">
          <mxGeometry x="1190" y="440" width="120" height="80" as="geometry" />
        </mxCell>
        <mxCell id="fs0dfM01-aWYpjKkijkv-1815" value="商品列表" style="ellipse;whiteSpace=wrap;html=1;rounded=1;fontSize=14;fontColor=#FFFFFF;strokeColor=none;strokeWidth=3;fillColor=#FF9933;" parent="1" vertex="1">
          <mxGeometry x="1010" y="420" width="120" height="80" as="geometry" />
        </mxCell>
        <mxCell id="fs0dfM01-aWYpjKkijkv-1817" value="商品搜索" style="ellipse;whiteSpace=wrap;html=1;rounded=1;fontSize=14;fontColor=#FFFFFF;strokeColor=none;strokeWidth=3;fillColor=#FF9933;" parent="1" vertex="1">
          <mxGeometry x="900" y="540" width="120" height="80" as="geometry" />
        </mxCell>
        <mxCell id="fs0dfM01-aWYpjKkijkv-1819" value="修改用户资料" style="ellipse;whiteSpace=wrap;html=1;rounded=1;fontSize=14;fontColor=#FFFFFF;strokeColor=none;strokeWidth=3;fillColor=#FF9933;" parent="1" vertex="1">
          <mxGeometry x="1350" y="310" width="120" height="80" as="geometry" />
        </mxCell>
        <mxCell id="fs0dfM01-aWYpjKkijkv-1826" value="账号密码修改" style="ellipse;whiteSpace=wrap;html=1;rounded=1;fontSize=14;fontColor=#FFFFFF;strokeColor=none;strokeWidth=3;fillColor=#FF9933;" parent="1" vertex="1">
          <mxGeometry x="1530" y="290" width="120" height="80" as="geometry" />
        </mxCell>
        <mxCell id="fs0dfM01-aWYpjKkijkv-1830" value="订单查看" style="ellipse;whiteSpace=wrap;html=1;rounded=1;fontSize=14;fontColor=#FFFFFF;strokeColor=none;strokeWidth=3;fillColor=#FF9933;" parent="1" vertex="1">
          <mxGeometry x="1680" y="600" width="120" height="80" as="geometry" />
        </mxCell>
        <mxCell id="fs0dfM01-aWYpjKkijkv-1842" value="" style="edgeStyle=none;rounded=0;orthogonalLoop=1;jettySize=auto;html=1;fontSize=14;fontColor=#FFFFFF;" parent="1" source="fs0dfM01-aWYpjKkijkv-1840" target="fs0dfM01-aWYpjKkijkv-1819" edge="1">
          <mxGeometry relative="1" as="geometry" />
        </mxCell>
        <mxCell id="fs0dfM01-aWYpjKkijkv-1843" value="" style="edgeStyle=none;rounded=0;orthogonalLoop=1;jettySize=auto;html=1;fontSize=14;fontColor=#FFFFFF;" parent="1" source="fs0dfM01-aWYpjKkijkv-1840" target="fs0dfM01-aWYpjKkijkv-1826" edge="1">
          <mxGeometry relative="1" as="geometry" />
        </mxCell>
        <mxCell id="fs0dfM01-aWYpjKkijkv-1862" value="" style="edgeStyle=none;rounded=0;orthogonalLoop=1;jettySize=auto;html=1;fontSize=14;fontColor=#FFFFFF;" parent="1" source="fs0dfM01-aWYpjKkijkv-1840" target="fs0dfM01-aWYpjKkijkv-1861" edge="1">
          <mxGeometry relative="1" as="geometry" />
        </mxCell>
        <mxCell id="fs0dfM01-aWYpjKkijkv-1840" value="用户中心" style="whiteSpace=wrap;html=1;rounded=1;fontSize=14;fontColor=#FFFFFF;strokeColor=none;strokeWidth=3;fillColor=#009900;" parent="1" vertex="1">
          <mxGeometry x="1470" y="480" width="120" height="60" as="geometry" />
        </mxCell>
        <mxCell id="fs0dfM01-aWYpjKkijkv-1846" value="" style="edgeStyle=none;rounded=0;orthogonalLoop=1;jettySize=auto;html=1;fontSize=14;fontColor=#FFFFFF;" parent="1" source="fs0dfM01-aWYpjKkijkv-1844" target="fs0dfM01-aWYpjKkijkv-1815" edge="1">
          <mxGeometry relative="1" as="geometry" />
        </mxCell>
        <mxCell id="fs0dfM01-aWYpjKkijkv-1847" value="" style="edgeStyle=none;rounded=0;orthogonalLoop=1;jettySize=auto;html=1;fontSize=14;fontColor=#FFFFFF;" parent="1" source="fs0dfM01-aWYpjKkijkv-1844" target="fs0dfM01-aWYpjKkijkv-1817" edge="1">
          <mxGeometry relative="1" as="geometry" />
        </mxCell>
        <mxCell id="fs0dfM01-aWYpjKkijkv-1849" value="" style="edgeStyle=none;rounded=0;orthogonalLoop=1;jettySize=auto;html=1;fontSize=14;fontColor=#FFFFFF;" parent="1" source="fs0dfM01-aWYpjKkijkv-1844" target="fs0dfM01-aWYpjKkijkv-1813" edge="1">
          <mxGeometry relative="1" as="geometry" />
        </mxCell>
        <mxCell id="fs0dfM01-aWYpjKkijkv-1844" value="首页" style="whiteSpace=wrap;html=1;rounded=1;fontSize=14;fontColor=#FFFFFF;strokeColor=none;strokeWidth=3;fillColor=#009900;" parent="1" vertex="1">
          <mxGeometry x="1090" y="570" width="120" height="60" as="geometry" />
        </mxCell>
        <mxCell id="fs0dfM01-aWYpjKkijkv-1852" value="" style="edgeStyle=none;rounded=0;orthogonalLoop=1;jettySize=auto;html=1;fontSize=14;fontColor=#FFFFFF;" parent="1" source="fs0dfM01-aWYpjKkijkv-1850" target="fs0dfM01-aWYpjKkijkv-1830" edge="1">
          <mxGeometry relative="1" as="geometry" />
        </mxCell>
        <mxCell id="fs0dfM01-aWYpjKkijkv-1858" value="" style="edgeStyle=none;rounded=0;orthogonalLoop=1;jettySize=auto;html=1;fontSize=14;fontColor=#FFFFFF;" parent="1" source="fs0dfM01-aWYpjKkijkv-1850" target="fs0dfM01-aWYpjKkijkv-1857" edge="1">
          <mxGeometry relative="1" as="geometry" />
        </mxCell>
        <mxCell id="fs0dfM01-aWYpjKkijkv-1860" value="" style="edgeStyle=none;rounded=0;orthogonalLoop=1;jettySize=auto;html=1;fontSize=14;fontColor=#FFFFFF;" parent="1" source="fs0dfM01-aWYpjKkijkv-1850" target="fs0dfM01-aWYpjKkijkv-1859" edge="1">
          <mxGeometry relative="1" as="geometry" />
        </mxCell>
        <mxCell id="fs0dfM01-aWYpjKkijkv-1850" value="订单中心" style="whiteSpace=wrap;html=1;rounded=1;fontSize=14;fontColor=#FFFFFF;strokeColor=none;strokeWidth=3;fillColor=#009900;" parent="1" vertex="1">
          <mxGeometry x="1520" y="760" width="120" height="60" as="geometry" />
        </mxCell>
        <mxCell id="fs0dfM01-aWYpjKkijkv-1857" value="结算" style="ellipse;whiteSpace=wrap;html=1;rounded=1;fontSize=14;fontColor=#FFFFFF;strokeColor=none;strokeWidth=3;fillColor=#FF9933;" parent="1" vertex="1">
          <mxGeometry x="1740" y="750" width="120" height="80" as="geometry" />
        </mxCell>
        <mxCell id="fs0dfM01-aWYpjKkijkv-1859" value="售后处理" style="ellipse;whiteSpace=wrap;html=1;rounded=1;fontSize=14;fontColor=#FFFFFF;strokeColor=none;strokeWidth=3;fillColor=#FF9933;" parent="1" vertex="1">
          <mxGeometry x="1660" y="870" width="120" height="80" as="geometry" />
        </mxCell>
        <mxCell id="fs0dfM01-aWYpjKkijkv-1861" value="售后处理" style="ellipse;whiteSpace=wrap;html=1;rounded=1;fontSize=14;fontColor=#FFFFFF;strokeColor=none;strokeWidth=3;fillColor=#FF9933;" parent="1" vertex="1">
          <mxGeometry x="1670" y="290" width="120" height="80" as="geometry" />
        </mxCell>
        <mxCell id="hfIR77nUvffGfV-e1Rjv-2" value="" style="rounded=0;orthogonalLoop=1;jettySize=auto;html=1;" edge="1" parent="1" source="fs0dfM01-aWYpjKkijkv-1863" target="hfIR77nUvffGfV-e1Rjv-1">
          <mxGeometry relative="1" as="geometry" />
        </mxCell>
        <mxCell id="hfIR77nUvffGfV-e1Rjv-6" value="" style="rounded=0;orthogonalLoop=1;jettySize=auto;html=1;" edge="1" parent="1" source="fs0dfM01-aWYpjKkijkv-1863" target="hfIR77nUvffGfV-e1Rjv-5">
          <mxGeometry relative="1" as="geometry" />
        </mxCell>
        <mxCell id="hfIR77nUvffGfV-e1Rjv-8" value="" style="edgeStyle=none;rounded=0;orthogonalLoop=1;jettySize=auto;html=1;" edge="1" parent="1" source="fs0dfM01-aWYpjKkijkv-1863" target="hfIR77nUvffGfV-e1Rjv-7">
          <mxGeometry relative="1" as="geometry" />
        </mxCell>
        <mxCell id="hfIR77nUvffGfV-e1Rjv-14" value="" style="edgeStyle=none;rounded=0;orthogonalLoop=1;jettySize=auto;html=1;" edge="1" parent="1" source="fs0dfM01-aWYpjKkijkv-1863" target="hfIR77nUvffGfV-e1Rjv-13">
          <mxGeometry relative="1" as="geometry" />
        </mxCell>
        <mxCell id="fs0dfM01-aWYpjKkijkv-1863" value="商品管理" style="whiteSpace=wrap;html=1;rounded=1;fontSize=14;fontColor=#FFFFFF;strokeColor=none;strokeWidth=3;fillColor=#009900;" parent="1" vertex="1">
          <mxGeometry x="680" y="1271" width="120" height="60" as="geometry" />
        </mxCell>
        <mxCell id="hfIR77nUvffGfV-e1Rjv-20" value="" style="edgeStyle=none;rounded=0;orthogonalLoop=1;jettySize=auto;html=1;" edge="1" parent="1" source="fs0dfM01-aWYpjKkijkv-1865" target="hfIR77nUvffGfV-e1Rjv-19">
          <mxGeometry relative="1" as="geometry" />
        </mxCell>
        <mxCell id="hfIR77nUvffGfV-e1Rjv-22" value="" style="edgeStyle=none;rounded=0;orthogonalLoop=1;jettySize=auto;html=1;" edge="1" parent="1" source="fs0dfM01-aWYpjKkijkv-1865" target="hfIR77nUvffGfV-e1Rjv-21">
          <mxGeometry relative="1" as="geometry" />
        </mxCell>
        <mxCell id="fs0dfM01-aWYpjKkijkv-1865" value="售后管理" style="whiteSpace=wrap;html=1;rounded=1;fontSize=14;fontColor=#FFFFFF;strokeColor=none;strokeWidth=3;fillColor=#009900;" parent="1" vertex="1">
          <mxGeometry x="1270" y="1360" width="120" height="60" as="geometry" />
        </mxCell>
        <mxCell id="hfIR77nUvffGfV-e1Rjv-26" value="" style="edgeStyle=none;rounded=0;orthogonalLoop=1;jettySize=auto;html=1;" edge="1" parent="1" source="fs0dfM01-aWYpjKkijkv-1867" target="hfIR77nUvffGfV-e1Rjv-25">
          <mxGeometry relative="1" as="geometry" />
        </mxCell>
        <mxCell id="hfIR77nUvffGfV-e1Rjv-28" value="" style="edgeStyle=none;rounded=0;orthogonalLoop=1;jettySize=auto;html=1;" edge="1" parent="1" source="fs0dfM01-aWYpjKkijkv-1867" target="hfIR77nUvffGfV-e1Rjv-27">
          <mxGeometry relative="1" as="geometry" />
        </mxCell>
        <mxCell id="fs0dfM01-aWYpjKkijkv-1867" value="用户管理" style="whiteSpace=wrap;html=1;rounded=1;fontSize=14;fontColor=#FFFFFF;strokeColor=none;strokeWidth=3;fillColor=#009900;" parent="1" vertex="1">
          <mxGeometry x="1365" y="1211" width="120" height="60" as="geometry" />
        </mxCell>
        <mxCell id="hfIR77nUvffGfV-e1Rjv-12" value="" style="edgeStyle=none;rounded=0;orthogonalLoop=1;jettySize=auto;html=1;" edge="1" parent="1" source="fs0dfM01-aWYpjKkijkv-1870" target="hfIR77nUvffGfV-e1Rjv-11">
          <mxGeometry relative="1" as="geometry" />
        </mxCell>
        <mxCell id="hfIR77nUvffGfV-e1Rjv-18" value="" style="edgeStyle=none;rounded=0;orthogonalLoop=1;jettySize=auto;html=1;" edge="1" parent="1" source="fs0dfM01-aWYpjKkijkv-1870" target="hfIR77nUvffGfV-e1Rjv-17">
          <mxGeometry relative="1" as="geometry" />
        </mxCell>
        <mxCell id="fs0dfM01-aWYpjKkijkv-1870" value="订单管理" style="whiteSpace=wrap;html=1;rounded=1;fontSize=14;fontColor=#FFFFFF;strokeColor=none;strokeWidth=3;fillColor=#009900;" parent="1" vertex="1">
          <mxGeometry x="1010" y="1380" width="120" height="60" as="geometry" />
        </mxCell>
        <mxCell id="hfIR77nUvffGfV-e1Rjv-4" value="" style="rounded=0;orthogonalLoop=1;jettySize=auto;html=1;" edge="1" parent="1" source="hfIR77nUvffGfV-e1Rjv-1" target="hfIR77nUvffGfV-e1Rjv-3">
          <mxGeometry relative="1" as="geometry" />
        </mxCell>
        <mxCell id="hfIR77nUvffGfV-e1Rjv-1" value="添加商品" style="ellipse;whiteSpace=wrap;html=1;rounded=1;fontSize=14;fontColor=#FFFFFF;strokeColor=none;strokeWidth=3;fillColor=#FF9933;" vertex="1" parent="1">
          <mxGeometry x="465" y="1241" width="120" height="80" as="geometry" />
        </mxCell>
        <mxCell id="hfIR77nUvffGfV-e1Rjv-3" value="多渠道添加" style="ellipse;whiteSpace=wrap;html=1;rounded=1;fontSize=14;fontColor=#FFFFFF;strokeColor=none;strokeWidth=3;fillColor=#FF9933;" vertex="1" parent="1">
          <mxGeometry x="465" y="1120" width="120" height="80" as="geometry" />
        </mxCell>
        <mxCell id="hfIR77nUvffGfV-e1Rjv-5" value="上下架商品" style="ellipse;whiteSpace=wrap;html=1;rounded=1;fontSize=14;fontColor=#FFFFFF;strokeColor=none;strokeWidth=3;fillColor=#FF9933;" vertex="1" parent="1">
          <mxGeometry x="450" y="1380" width="120" height="80" as="geometry" />
        </mxCell>
        <mxCell id="hfIR77nUvffGfV-e1Rjv-7" value="商品列表" style="ellipse;whiteSpace=wrap;html=1;rounded=1;fontSize=14;fontColor=#FFFFFF;strokeColor=none;strokeWidth=3;fillColor=#FF9933;" vertex="1" parent="1">
          <mxGeometry x="480" y="1490" width="120" height="80" as="geometry" />
        </mxCell>
        <mxCell id="hfIR77nUvffGfV-e1Rjv-9" value="Banner管理" style="whiteSpace=wrap;html=1;rounded=1;fontSize=14;fontColor=#FFFFFF;strokeColor=none;strokeWidth=3;fillColor=#009900;" vertex="1" parent="1">
          <mxGeometry x="780" y="1090" width="120" height="60" as="geometry" />
        </mxCell>
        <mxCell id="hfIR77nUvffGfV-e1Rjv-11" value="订单列表" style="ellipse;whiteSpace=wrap;html=1;rounded=1;fontSize=14;fontColor=#FFFFFF;strokeColor=none;strokeWidth=3;fillColor=#FF9933;" vertex="1" parent="1">
          <mxGeometry x="880" y="1520" width="120" height="80" as="geometry" />
        </mxCell>
        <mxCell id="hfIR77nUvffGfV-e1Rjv-13" value="库存管理" style="ellipse;whiteSpace=wrap;html=1;rounded=1;fontSize=14;fontColor=#FFFFFF;strokeColor=none;strokeWidth=3;fillColor=#FF9933;" vertex="1" parent="1">
          <mxGeometry x="630" y="1530" width="120" height="80" as="geometry" />
        </mxCell>
        <mxCell id="hfIR77nUvffGfV-e1Rjv-17" value="关闭订单" style="ellipse;whiteSpace=wrap;html=1;rounded=1;fontSize=14;fontColor=#FFFFFF;strokeColor=none;strokeWidth=3;fillColor=#FF9933;" vertex="1" parent="1">
          <mxGeometry x="1040" y="1520" width="120" height="80" as="geometry" />
        </mxCell>
        <mxCell id="hfIR77nUvffGfV-e1Rjv-19" value="审核" style="ellipse;whiteSpace=wrap;html=1;rounded=1;fontSize=14;fontColor=#FFFFFF;strokeColor=none;strokeWidth=3;fillColor=#FF9933;" vertex="1" parent="1">
          <mxGeometry x="1270" y="1520" width="120" height="80" as="geometry" />
        </mxCell>
        <mxCell id="hfIR77nUvffGfV-e1Rjv-21" value="驳回" style="ellipse;whiteSpace=wrap;html=1;rounded=1;fontSize=14;fontColor=#FFFFFF;strokeColor=none;strokeWidth=3;fillColor=#FF9933;" vertex="1" parent="1">
          <mxGeometry x="1450" y="1480" width="120" height="80" as="geometry" />
        </mxCell>
        <mxCell id="hfIR77nUvffGfV-e1Rjv-25" value="用户列表" style="ellipse;whiteSpace=wrap;html=1;rounded=1;fontSize=14;fontColor=#FFFFFF;strokeColor=none;strokeWidth=3;fillColor=#FF9933;" vertex="1" parent="1">
          <mxGeometry x="1570" y="1170" width="120" height="80" as="geometry" />
        </mxCell>
        <mxCell id="hfIR77nUvffGfV-e1Rjv-27" value="启用/禁用" style="ellipse;whiteSpace=wrap;html=1;rounded=1;fontSize=14;fontColor=#FFFFFF;strokeColor=none;strokeWidth=3;fillColor=#FF9933;" vertex="1" parent="1">
          <mxGeometry x="1560" y="1290" width="120" height="80" as="geometry" />
        </mxCell>
        <mxCell id="hfIR77nUvffGfV-e1Rjv-36" value="" style="edgeStyle=none;rounded=0;orthogonalLoop=1;jettySize=auto;html=1;" edge="1" parent="1" source="hfIR77nUvffGfV-e1Rjv-33" target="hfIR77nUvffGfV-e1Rjv-35">
          <mxGeometry relative="1" as="geometry" />
        </mxCell>
        <mxCell id="hfIR77nUvffGfV-e1Rjv-38" value="" style="edgeStyle=none;rounded=0;orthogonalLoop=1;jettySize=auto;html=1;" edge="1" parent="1" source="hfIR77nUvffGfV-e1Rjv-33" target="hfIR77nUvffGfV-e1Rjv-37">
          <mxGeometry relative="1" as="geometry" />
        </mxCell>
        <mxCell id="hfIR77nUvffGfV-e1Rjv-40" value="" style="edgeStyle=none;rounded=0;orthogonalLoop=1;jettySize=auto;html=1;" edge="1" parent="1" source="hfIR77nUvffGfV-e1Rjv-33" target="hfIR77nUvffGfV-e1Rjv-39">
          <mxGeometry relative="1" as="geometry" />
        </mxCell>
        <mxCell id="hfIR77nUvffGfV-e1Rjv-33" value="后台权限管理" style="whiteSpace=wrap;html=1;rounded=1;fontSize=14;fontColor=#FFFFFF;strokeColor=none;strokeWidth=3;fillColor=#009900;" vertex="1" parent="1">
          <mxGeometry x="1280" y="1070" width="120" height="60" as="geometry" />
        </mxCell>
        <mxCell id="hfIR77nUvffGfV-e1Rjv-35" value="账号管理" style="ellipse;whiteSpace=wrap;html=1;rounded=1;fontSize=14;fontColor=#FFFFFF;strokeColor=none;strokeWidth=3;fillColor=#FF9933;" vertex="1" parent="1">
          <mxGeometry x="1280" y="910" width="120" height="80" as="geometry" />
        </mxCell>
        <mxCell id="hfIR77nUvffGfV-e1Rjv-37" value="菜单管理" style="ellipse;whiteSpace=wrap;html=1;rounded=1;fontSize=14;fontColor=#FFFFFF;strokeColor=none;strokeWidth=3;fillColor=#FF9933;" vertex="1" parent="1">
          <mxGeometry x="1440" y="930" width="120" height="80" as="geometry" />
        </mxCell>
        <mxCell id="hfIR77nUvffGfV-e1Rjv-39" value="权限管理" style="ellipse;whiteSpace=wrap;html=1;rounded=1;fontSize=14;fontColor=#FFFFFF;strokeColor=none;strokeWidth=3;fillColor=#FF9933;" vertex="1" parent="1">
          <mxGeometry x="1470" y="1040" width="120" height="80" as="geometry" />
        </mxCell>
      </root>
    </mxGraphModel>
  </diagram>
</mxfile>
